<svg width="34" height="34" viewBox="0 0 34 34" fill="none" xmlns="http://www.w3.org/2000/svg">
<path d="M17 31.8572C25.2055 31.8572 31.8572 25.2055 31.8572 17C31.8572 8.79465 25.2055 2.14288 17 2.14288C8.79465 2.14288 2.14288 8.79465 2.14288 17C2.14288 25.2055 8.79465 31.8572 17 31.8572Z" stroke="black" stroke-width="3" stroke-linecap="round" stroke-linejoin="round"/>
<path d="M13 12.9992C13 12.2081 13.2348 11.4347 13.6748 10.7769C14.1147 10.1191 14.74 9.60644 15.4716 9.30368C16.2031 9.00093 17.0081 8.92173 17.7847 9.07606C18.5614 9.2304 19.2748 9.61136 19.8347 10.1708C20.3946 10.7302 20.7759 11.4429 20.9304 12.2188C21.0849 12.9948 21.0056 13.799 20.7025 14.5299C20.3995 15.2608 19.8864 15.8855 19.228 16.325C18.5696 16.7646 17.7955 16.9992 17.0037 16.9992V19.6658" stroke="black" stroke-width="3" stroke-linecap="round" stroke-linejoin="round"/>
<path d="M17 24.9052C16.6844 24.9052 16.4286 24.6494 16.4286 24.3337C16.4286 24.0181 16.6844 23.7623 17 23.7623" stroke="black" stroke-width="3" stroke-linecap="round" stroke-linejoin="round"/>
<path d="M17 24.9052C17.3156 24.9052 17.5715 24.6494 17.5715 24.3337C17.5715 24.0181 17.3156 23.7623 17 23.7623" stroke="black" stroke-width="3" stroke-linecap="round" stroke-linejoin="round"/>
</svg>
