<svg width="34" height="34" viewBox="0 0 34 34" fill="none" xmlns="http://www.w3.org/2000/svg">
<path d="M17 31.8572C25.2055 31.8572 31.8572 25.2055 31.8572 17C31.8572 8.79465 25.2055 2.14288 17 2.14288C8.79465 2.14288 2.14288 8.79465 2.14288 17C2.14288 25.2055 8.79465 31.8572 17 31.8572Z" stroke="black" stroke-width="3" stroke-linecap="round" stroke-linejoin="round"/>
<path d="M13.5715 23.8572H20.4286" stroke="black" stroke-width="3" stroke-linecap="round" stroke-linejoin="round"/>
<path d="M17 23.8572V15.8572H14.7143" stroke="black" stroke-width="3" stroke-linecap="round" stroke-linejoin="round"/>
<path d="M17 10.7143C16.6844 10.7143 16.4286 10.4585 16.4286 10.1429C16.4286 9.82731 16.6844 9.57147 17 9.57147" stroke="black" stroke-width="3" stroke-linecap="round" stroke-linejoin="round"/>
<path d="M17 10.7143C17.3156 10.7143 17.5714 10.4585 17.5714 10.1429C17.5714 9.82731 17.3156 9.57147 17 9.57147" stroke="black" stroke-width="3" stroke-linecap="round" stroke-linejoin="round"/>
</svg>
