<svg width="30" height="34" viewBox="0 0 30 34" fill="none" xmlns="http://www.w3.org/2000/svg">
<path d="M28.44 29.32C28.4761 29.6407 28.4437 29.9653 28.3452 30.2727C28.2467 30.5799 28.0844 30.8629 27.8686 31.1029C27.6524 31.3424 27.3877 31.5337 27.0924 31.6636C26.7968 31.7936 26.4771 31.8597 26.1543 31.8572H3.84576C3.52295 31.8597 3.20329 31.7936 2.90781 31.6636C2.61234 31.5337 2.34775 31.3424 2.13147 31.1029C1.91577 30.8629 1.75335 30.5799 1.65485 30.2727C1.55636 29.9653 1.52404 29.6407 1.56004 29.32L3.57147 11.2857H26.4286L28.44 29.32Z" stroke="black" stroke-width="3" stroke-linecap="round" stroke-linejoin="round"/>
<path d="M9.28571 11.2857V7.85717C9.28571 6.34165 9.88774 4.88819 10.9594 3.81655C12.031 2.74492 13.4845 2.14288 15 2.14288C16.5155 2.14288 17.969 2.74492 19.0406 3.81655C20.1122 4.88819 20.7143 6.34165 20.7143 7.85717V11.2857" stroke="black" stroke-width="3" stroke-linecap="round" stroke-linejoin="round"/>
</svg>
