<svg width="32" height="32" viewBox="0 0 32 32" fill="none" xmlns="http://www.w3.org/2000/svg">
<path d="M27.8441 17.1429H9.14704L6.86133 5.71429H29.7184C29.8857 5.71491 30.0505 5.75217 30.2018 5.82348C30.3529 5.89477 30.4866 5.99839 30.5934 6.12698C30.7003 6.25555 30.7776 6.40602 30.8199 6.56771C30.8622 6.72943 30.8686 6.89843 30.8384 7.06287L28.9641 16.2057C28.9205 16.4701 28.7833 16.71 28.5778 16.8819C28.3723 17.0539 28.112 17.1465 27.8441 17.1429Z" stroke="white" stroke-width="3" stroke-linecap="round" stroke-linejoin="round"/>
<path d="M6.86132 5.71431L5.90132 2.05717C5.84863 1.79903 5.70836 1.56702 5.50427 1.40041C5.30017 1.2338 5.04479 1.14283 4.78132 1.14288H1.14703" stroke="white" stroke-width="3" stroke-linecap="round" stroke-linejoin="round"/>
<path d="M9.14703 17.1429L10.107 21.9429C10.1597 22.201 10.3 22.433 10.5041 22.5996C10.7082 22.7662 10.9636 22.8572 11.227 22.8572H25.147" stroke="white" stroke-width="3" stroke-linecap="round" stroke-linejoin="round"/>
<path d="M24.0041 30.8572C23.373 30.8572 22.8613 30.3454 22.8613 29.7143C22.8613 29.0832 23.373 28.5714 24.0041 28.5714C24.6354 28.5714 25.147 29.0832 25.147 29.7143C25.147 30.3454 24.6354 30.8572 24.0041 30.8572Z" stroke="white" stroke-width="3" stroke-linecap="round" stroke-linejoin="round"/>
<path d="M12.5756 30.8572C11.9444 30.8572 11.4327 30.3454 11.4327 29.7143C11.4327 29.0832 11.9444 28.5714 12.5756 28.5714C13.2068 28.5714 13.7185 29.0832 13.7185 29.7143C13.7185 30.3454 13.2068 30.8572 12.5756 30.8572Z" stroke="white" stroke-width="3" stroke-linecap="round" stroke-linejoin="round"/>
</svg>
