<svg width="32" height="32" viewBox="0 0 32 32" fill="none" xmlns="http://www.w3.org/2000/svg">
<path d="M25.0194 30.8571C24.3883 30.8571 23.8766 30.3454 23.8766 29.7143C23.8766 29.0832 24.3883 28.5714 25.0194 28.5714C25.6507 28.5714 26.1623 29.0832 26.1623 29.7143C26.1623 30.3454 25.6507 30.8571 25.0194 30.8571Z" stroke="black" stroke-width="2" stroke-linecap="round" stroke-linejoin="round"/>
<path d="M10.1624 30.8571C9.5312 30.8571 9.01952 30.3454 9.01952 29.7143C9.01952 29.0832 9.5312 28.5714 10.1624 28.5714C10.7936 28.5714 11.3052 29.0832 11.3052 29.7143C11.3052 30.3454 10.7936 30.8571 10.1624 30.8571Z" stroke="black" stroke-width="2" stroke-linecap="round" stroke-linejoin="round"/>
<path d="M21.9531 14.8571H15.096" stroke="black" stroke-width="2" stroke-linecap="round" stroke-linejoin="round"/>
<path d="M18.5246 11.4286V18.2857" stroke="black" stroke-width="2" stroke-linecap="round" stroke-linejoin="round"/>
<path d="M1.14286 1.14286H6.85714L7.45865 6.85715M7.45865 6.85715L8.92745 20.8107C9.0499 21.974 10.0309 22.8571 11.2006 22.8571H25.6439C26.6928 22.8571 27.6071 22.1433 27.8615 21.1258L30.7186 9.69724C31.0793 8.25461 29.9881 6.85715 28.501 6.85715H7.45865Z" stroke="black" stroke-width="2" stroke-linecap="round" stroke-linejoin="round"/>
</svg>
